<svg xmlns="http://www.w3.org/2000/svg" width="16" height="15" viewBox="0 0 16 15"><defs><clipPath id="e8mra"><path fill="#fff" d="M0 15V0h16v15zM7.729 2C4.565 2 2 4.462 2 7.5 2 10.537 4.565 13 7.729 13s5.729-2.463 5.729-5.5c0-3.038-2.565-5.5-5.73-5.5z"/></clipPath></defs><g><g><path d="M7.729 2C4.565 2 2 4.462 2 7.5 2 10.537 4.565 13 7.729 13s5.729-2.463 5.729-5.5c0-3.038-2.565-5.5-5.73-5.5z"/><path fill="none" stroke="#1ca8dd" stroke-linecap="round" stroke-linejoin="round" stroke-miterlimit="20" stroke-width="4" d="M7.729 2C4.565 2 2 4.462 2 7.5 2 10.537 4.565 13 7.729 13s5.729-2.463 5.729-5.5c0-3.038-2.565-5.5-5.73-5.5z" clip-path="url(&quot;#e8mra&quot;)"/></g></g></svg>